<mxfile host="app.diagrams.net" modified="2024-07-18T07:17:42.757Z" agent="Mozilla/5.0 (Macintosh; Intel Mac OS X 10_15_7) AppleWebKit/537.36 (KHTML, like Gecko) Chrome/126.0.0.0 Safari/537.36" etag="lhqwLIzuM3W0C6uEGfSB" version="24.7.1" type="device">
  <diagram name="Page-1" id="Yy4-YU6LZDsEJz5NZf-z">
    <mxGraphModel dx="866" dy="528" grid="1" gridSize="10" guides="1" tooltips="1" connect="1" arrows="1" fold="1" page="1" pageScale="1" pageWidth="827" pageHeight="1169" math="0" shadow="0">
      <root>
        <mxCell id="0" />
        <mxCell id="1" parent="0" />
        <mxCell id="FrIHxWTutu0FzyU9pkgP-1" value="" style="ellipse;whiteSpace=wrap;html=1;aspect=fixed;" vertex="1" parent="1">
          <mxGeometry x="80" y="70" width="380" height="380" as="geometry" />
        </mxCell>
        <mxCell id="FrIHxWTutu0FzyU9pkgP-2" value="" style="ellipse;whiteSpace=wrap;html=1;aspect=fixed;" vertex="1" parent="1">
          <mxGeometry x="125" y="115" width="290" height="290" as="geometry" />
        </mxCell>
        <mxCell id="FrIHxWTutu0FzyU9pkgP-3" value="A" style="ellipse;whiteSpace=wrap;html=1;aspect=fixed;fillColor=#fff2cc;strokeColor=#d6b656;" vertex="1" parent="1">
          <mxGeometry x="220" y="75" width="40" height="40" as="geometry" />
        </mxCell>
        <mxCell id="FrIHxWTutu0FzyU9pkgP-4" value="S3" style="ellipse;whiteSpace=wrap;html=1;aspect=fixed;fillColor=#dae8fc;strokeColor=#6c8ebf;" vertex="1" parent="1">
          <mxGeometry x="140" y="115" width="40" height="40" as="geometry" />
        </mxCell>
        <mxCell id="FrIHxWTutu0FzyU9pkgP-5" value="H" style="ellipse;whiteSpace=wrap;html=1;aspect=fixed;fillColor=#fff2cc;strokeColor=#d6b656;" vertex="1" parent="1">
          <mxGeometry x="90" y="190" width="40" height="40" as="geometry" />
        </mxCell>
        <mxCell id="FrIHxWTutu0FzyU9pkgP-6" value="G" style="ellipse;whiteSpace=wrap;html=1;aspect=fixed;fillColor=#fff2cc;strokeColor=#d6b656;" vertex="1" parent="1">
          <mxGeometry x="85" y="280" width="40" height="40" as="geometry" />
        </mxCell>
        <mxCell id="FrIHxWTutu0FzyU9pkgP-7" value="S2" style="ellipse;whiteSpace=wrap;html=1;aspect=fixed;fillColor=#dae8fc;strokeColor=#6c8ebf;" vertex="1" parent="1">
          <mxGeometry x="110" y="330" width="40" height="40" as="geometry" />
        </mxCell>
        <mxCell id="FrIHxWTutu0FzyU9pkgP-8" value="F" style="ellipse;whiteSpace=wrap;html=1;aspect=fixed;fillColor=#fff2cc;strokeColor=#d6b656;" vertex="1" parent="1">
          <mxGeometry x="160" y="380" width="40" height="40" as="geometry" />
        </mxCell>
        <mxCell id="FrIHxWTutu0FzyU9pkgP-10" value="D" style="ellipse;whiteSpace=wrap;html=1;aspect=fixed;fillColor=#fff2cc;strokeColor=#d6b656;" vertex="1" parent="1">
          <mxGeometry x="360" y="365" width="40" height="40" as="geometry" />
        </mxCell>
        <mxCell id="FrIHxWTutu0FzyU9pkgP-11" value="S0" style="ellipse;whiteSpace=wrap;html=1;aspect=fixed;fillColor=#dae8fc;strokeColor=#6c8ebf;" vertex="1" parent="1">
          <mxGeometry x="414" y="280" width="40" height="40" as="geometry" />
        </mxCell>
        <mxCell id="FrIHxWTutu0FzyU9pkgP-12" value="C" style="ellipse;whiteSpace=wrap;html=1;aspect=fixed;fillColor=#fff2cc;strokeColor=#d6b656;" vertex="1" parent="1">
          <mxGeometry x="410" y="190" width="40" height="40" as="geometry" />
        </mxCell>
        <mxCell id="FrIHxWTutu0FzyU9pkgP-13" value="B" style="ellipse;whiteSpace=wrap;html=1;aspect=fixed;fillColor=#fff2cc;strokeColor=#d6b656;" vertex="1" parent="1">
          <mxGeometry x="370" y="120" width="40" height="40" as="geometry" />
        </mxCell>
        <mxCell id="FrIHxWTutu0FzyU9pkgP-14" value="E" style="ellipse;whiteSpace=wrap;html=1;aspect=fixed;fillColor=#fff2cc;strokeColor=#d6b656;" vertex="1" parent="1">
          <mxGeometry x="280" y="405" width="40" height="40" as="geometry" />
        </mxCell>
        <mxCell id="FrIHxWTutu0FzyU9pkgP-15" value="&lt;table style=&quot;border-collapse: collapse; width: 65pt;&quot; width=&quot;87&quot; cellspacing=&quot;0&quot; cellpadding=&quot;0&quot; border=&quot;0&quot;&gt;&lt;colgroup&gt;&lt;col style=&quot;width: 65pt;&quot; width=&quot;87&quot;&gt;&lt;/colgroup&gt;&lt;tbody&gt;&lt;tr style=&quot;height: 16pt;&quot; height=&quot;21&quot;&gt;&lt;td style=&quot;padding-top: 1px; padding-right: 1px; padding-left: 1px; font-size: 12pt; font-family: &amp;quot;Aptos Narrow&amp;quot;, sans-serif; vertical-align: bottom; border: none; text-wrap: nowrap; height: 16pt; width: 65pt;&quot; width=&quot;87&quot; height=&quot;21&quot;&gt;Server&lt;/td&gt;&lt;/tr&gt;&lt;tr style=&quot;height: 16pt;&quot; height=&quot;21&quot;&gt;&lt;td style=&quot;padding-top: 1px; padding-right: 1px; padding-left: 1px; font-size: 12pt; font-family: &amp;quot;Aptos Narrow&amp;quot;, sans-serif; vertical-align: bottom; border: none; text-wrap: nowrap; height: 16pt;&quot; height=&quot;21&quot;&gt;S0 ---&amp;gt; A,B,C&lt;/td&gt;&lt;/tr&gt;&lt;tr style=&quot;height: 16pt;&quot; height=&quot;21&quot;&gt;&lt;td style=&quot;padding-top: 1px; padding-right: 1px; padding-left: 1px; font-size: 12pt; font-family: &amp;quot;Aptos Narrow&amp;quot;, sans-serif; vertical-align: bottom; border: none; text-wrap: nowrap; height: 16pt;&quot; height=&quot;21&quot;&gt;S1------&amp;gt; X&lt;/td&gt;&lt;/tr&gt;&lt;tr style=&quot;height: 16pt;&quot; height=&quot;21&quot;&gt;&lt;td style=&quot;padding-top: 1px; padding-right: 1px; padding-left: 1px; font-size: 12pt; font-family: &amp;quot;Aptos Narrow&amp;quot;, sans-serif; vertical-align: bottom; border: none; text-wrap: nowrap; height: 16pt;&quot; height=&quot;21&quot;&gt;S2-----&amp;gt; &lt;b&gt;&lt;font color=&quot;#ff3333&quot;&gt;D, E,&lt;/font&gt;&lt;/b&gt; F&lt;/td&gt;&lt;/tr&gt;&lt;tr style=&quot;height: 16pt;&quot; height=&quot;21&quot;&gt;&lt;td style=&quot;padding-top: 1px; padding-right: 1px; padding-left: 1px; font-size: 12pt; font-family: &amp;quot;Aptos Narrow&amp;quot;, sans-serif; vertical-align: bottom; border: none; text-wrap: nowrap; height: 16pt;&quot; height=&quot;21&quot;&gt;S3------&amp;gt;G, H&lt;/td&gt;&lt;/tr&gt;&lt;/tbody&gt;&lt;/table&gt;" style="text;html=1;align=center;verticalAlign=middle;whiteSpace=wrap;rounded=0;" vertex="1" parent="1">
          <mxGeometry x="500" y="60" width="125" height="160" as="geometry" />
        </mxCell>
        <mxCell id="FrIHxWTutu0FzyU9pkgP-18" value="&lt;h2 style=&quot;box-sizing: inherit; margin: 1.72em 0px -0.31em; font-family: sohne, &amp;quot;Helvetica Neue&amp;quot;, Helvetica, Arial, sans-serif; color: rgb(36, 36, 36); line-height: 24px; font-size: 20px; text-align: start; background-color: rgb(255, 255, 255);&quot; data-selectable-paragraph=&quot;&quot; class=&quot;qv nw gt be nx qw qx dx oa qy qz dz od pa ra rb rc pe rd re rf pi rg rh ri rj bj&quot; id=&quot;6609&quot;&gt;Shutting down a server&lt;/h2&gt;" style="text;html=1;align=center;verticalAlign=middle;whiteSpace=wrap;rounded=0;" vertex="1" parent="1">
          <mxGeometry x="160" y="220" width="240" height="30" as="geometry" />
        </mxCell>
        <mxCell id="FrIHxWTutu0FzyU9pkgP-19" value="&lt;font style=&quot;font-size: 18px;&quot;&gt;Data Stored in S1, now passed to S2&lt;/font&gt;" style="text;html=1;align=center;verticalAlign=middle;whiteSpace=wrap;rounded=0;" vertex="1" parent="1">
          <mxGeometry x="650" y="140" width="130" height="30" as="geometry" />
        </mxCell>
        <mxCell id="FrIHxWTutu0FzyU9pkgP-20" value="" style="endArrow=classic;html=1;rounded=0;entryX=0.603;entryY=0.996;entryDx=0;entryDy=0;entryPerimeter=0;" edge="1" parent="1" target="FrIHxWTutu0FzyU9pkgP-1">
          <mxGeometry width="50" height="50" relative="1" as="geometry">
            <mxPoint x="450" y="460" as="sourcePoint" />
            <mxPoint x="360" y="480" as="targetPoint" />
          </mxGeometry>
        </mxCell>
        <mxCell id="FrIHxWTutu0FzyU9pkgP-21" value="" style="endArrow=classic;html=1;rounded=0;" edge="1" parent="1" target="FrIHxWTutu0FzyU9pkgP-1">
          <mxGeometry width="50" height="50" relative="1" as="geometry">
            <mxPoint x="450" y="460" as="sourcePoint" />
            <mxPoint x="319" y="458" as="targetPoint" />
          </mxGeometry>
        </mxCell>
        <mxCell id="FrIHxWTutu0FzyU9pkgP-22" value="&lt;font style=&quot;font-size: 18px;&quot;&gt;Keys D, E are now associated with S2&lt;/font&gt;" style="text;html=1;align=center;verticalAlign=middle;resizable=0;points=[];autosize=1;strokeColor=none;fillColor=none;" vertex="1" parent="1">
          <mxGeometry x="440" y="433" width="330" height="40" as="geometry" />
        </mxCell>
      </root>
    </mxGraphModel>
  </diagram>
</mxfile>
